<svg width="24" height="24" viewBox="0 0 24 24" fill="none" xmlns="http://www.w3.org/2000/svg">
<path d="M7.20585 18.996C8.43448 18.9159 9.42909 17.6308 9.97515 15.7637C10.0922 15.3621 9.78013 14.9807 9.37058 15.0008L4.55356 15.322C4.14402 15.3421 3.89049 15.7837 4.0465 16.1652C4.80709 17.952 5.97721 19.0763 7.20585 18.996Z" stroke="black" stroke-width="2"/>
<path d="M9.61975 11.6825C10.2003 11.6475 10.6684 11.1925 10.6684 10.6326C10.6684 9.77517 10.7621 8.81275 10.9119 7.76284C11.2677 5.36554 10.631 2.16332 7.42875 2.00583C3.5149 1.81335 2.84075 6.43295 3.02801 9.12772C3.08419 9.86266 3.19655 10.5626 3.36509 11.21C3.49618 11.7 3.98306 12.0325 4.52613 11.9975L9.61975 11.6825Z" stroke="black" stroke-width="2"/>
<path d="M18.9005 19.5952L14.1385 18.7214C13.7326 18.6539 13.3786 18.9882 13.4493 19.3918C13.7615 21.2667 14.6256 22.6329 15.8404 22.8542C17.0552 23.0755 18.3293 22.1177 19.3095 20.4733C19.5083 20.121 19.3037 19.6819 18.9005 19.5952Z" stroke="black" stroke-width="2"/>
<path d="M18.3735 6.10101C14.9994 5.8685 13.9508 9.05037 14.0377 11.5345C14.0674 12.6395 14.0333 13.6107 13.9507 14.4857C13.884 15.0557 14.3203 15.5763 14.9246 15.6832L20.2042 16.6263C20.769 16.7286 21.3187 16.45 21.5145 15.9671C21.7682 15.3289 21.989 14.6324 22.1158 13.8888C22.6528 11.1707 22.4969 6.38514 18.3735 6.10101Z" stroke="black" stroke-width="2"/>
</svg>
