<svg width="31" height="40" viewBox="0 0 31 40" fill="none" xmlns="http://www.w3.org/2000/svg">
<path d="M7.98162 27.6164C9.92862 27.4926 11.5048 25.5071 12.3701 22.6223C12.5555 22.0019 12.061 21.4125 11.412 21.4436L3.77858 21.9399C3.12959 21.9709 2.72782 22.6533 2.97506 23.2427C4.18035 26.0034 6.03463 27.7405 7.98162 27.6164Z" stroke="#A17A4F" stroke-width="2"/>
<path d="M11.6213 18.0315C12.5528 17.97 13.3039 17.1697 13.3039 16.1847C13.3039 14.6765 13.4542 12.9836 13.6945 11.1368C14.2654 6.91999 13.2439 1.28727 8.10589 1.01025C1.82616 0.671676 0.744479 8.79756 1.04494 13.5377C1.13508 14.8304 1.31536 16.0616 1.58578 17.2005C1.79611 18.0623 2.57732 18.6471 3.44867 18.5856L11.6213 18.0315Z" stroke="#A17A4F" stroke-width="2"/>
<path d="M27.221 32.8742L19.5875 32.3779C18.9382 32.3466 18.444 32.9363 18.6291 33.5566C19.4636 36.4414 21.0706 38.4267 23.0176 38.5507C24.9647 38.6748 26.788 36.9377 28.0242 34.177C28.2715 33.5877 27.8697 32.9363 27.221 32.8742Z" stroke="#A17A4F" stroke-width="2"/>
<path d="M22.6415 11.9446C17.3039 12.2216 16.243 17.8544 16.8357 22.0713C17.0854 23.9489 17.2103 25.6111 17.2415 27.119C17.2415 28.104 18.0218 28.9043 18.9897 28.9658L27.4482 29.5199C28.3534 29.5814 29.1649 28.9969 29.3834 28.1348C29.6643 26.9962 29.8828 25.765 29.9452 24.4722C30.2886 19.732 29.1646 11.606 22.6415 11.9446Z" stroke="#A17A4F" stroke-width="2"/>
</svg>
