<svg width="18" height="18" viewBox="0 0 18 18" fill="none" xmlns="http://www.w3.org/2000/svg">
<path fill-rule="evenodd" clip-rule="evenodd" d="M9 18C13.9706 18 18 13.9706 18 9C18 4.02944 13.9706 0 9 0C4.02944 0 0 4.02944 0 9C0 13.9706 4.02944 18 9 18ZM8.95833 4C8.40605 4 7.95833 4.44772 7.95833 5C7.95833 5.55228 8.40605 6 8.95833 6H8.96792C9.5202 6 9.96792 5.55228 9.96792 5C9.96792 4.44772 9.5202 4 8.96792 4H8.95833ZM8 7.83333C7.44772 7.83333 7 8.28105 7 8.83333C7 9.37166 7.42537 9.81064 7.95833 9.83248V12.6667C7.95833 13.219 8.40605 13.6667 8.95833 13.6667H9.91667C10.469 13.6667 10.9167 13.219 10.9167 12.6667C10.9167 12.1283 10.4913 11.6894 9.95833 11.6675V8.83333C9.95833 8.28105 9.51062 7.83333 8.95833 7.83333H8Z" fill="#946D4A"/>
</svg>
