<svg width="28" height="36" viewBox="0 0 28 36" fill="none" xmlns="http://www.w3.org/2000/svg">
<path d="M22.4855 24.9855L16.121 31.35C15.8427 31.6287 15.5121 31.8497 15.1483 32.0005C14.7845 32.1513 14.3946 32.2289 14.0008 32.2289C13.6069 32.2289 13.217 32.1513 12.8532 32.0005C12.4894 31.8497 12.1588 31.6287 11.8805 31.35L5.51451 24.9855C3.83634 23.3073 2.69351 21.1691 2.23054 18.8413C1.76756 16.5136 2.00524 14.1008 2.91351 11.9081C3.82178 9.71547 5.35985 7.84136 7.33323 6.52281C9.3066 5.20426 11.6267 4.50049 14 4.50049C16.3734 4.50049 18.6934 5.20426 20.6668 6.52281C22.6402 7.84136 24.1782 9.71547 25.0865 11.9081C25.9948 14.1008 26.2324 16.5136 25.7695 18.8413C25.3065 21.1691 24.1637 23.3073 22.4855 24.9855V24.9855Z" stroke="#A17A4F" stroke-width="2" stroke-linecap="round" stroke-linejoin="round"/>
<path d="M17.182 19.682C18.0259 18.8381 18.5 17.6935 18.5 16.5C18.5 15.3065 18.0259 14.1619 17.182 13.318C16.3381 12.4741 15.1935 12 14 12C12.8065 12 11.6619 12.4741 10.818 13.318C9.97411 14.1619 9.5 15.3065 9.5 16.5C9.5 17.6935 9.97411 18.8381 10.818 19.682C11.6619 20.5259 12.8065 21 14 21C15.1935 21 16.3381 20.5259 17.182 19.682Z" stroke="#A17A4F" stroke-width="2" stroke-linecap="round" stroke-linejoin="round"/>
</svg>
