<svg width="42" height="42" viewBox="0 0 42 42" fill="none" xmlns="http://www.w3.org/2000/svg">
<path d="M30.8998 29.1497L23.4745 36.575C23.1498 36.9 22.7642 37.1579 22.3397 37.3338C21.9153 37.5098 21.4603 37.6003 21.0009 37.6003C20.5414 37.6003 20.0865 37.5098 19.662 37.3338C19.2376 37.1579 18.852 36.9 18.5273 36.575L11.1003 29.1497C9.14239 27.1918 7.80909 24.6972 7.26896 21.9815C6.72882 19.2658 7.00611 16.4509 8.06576 13.8928C9.12541 11.3346 10.9198 9.14817 13.2221 7.60986C15.5244 6.07156 18.2311 5.25049 21 5.25049C23.7689 5.25049 26.4756 6.07156 28.7779 7.60986C31.0802 9.14817 32.8746 11.3346 33.9343 13.8928C34.9939 16.4509 35.2712 19.2658 34.7311 21.9815C34.1909 24.6972 32.8576 27.1918 30.8998 29.1497Z" fill="#FFD170" stroke="#4B3300" stroke-width="2" stroke-linecap="round" stroke-linejoin="round"/>
<path d="M24.7123 22.9623C25.6969 21.9777 26.25 20.6424 26.25 19.25C26.25 17.8576 25.6969 16.5223 24.7123 15.5377C23.7277 14.5531 22.3924 14 21 14C19.6076 14 18.2723 14.5531 17.2877 15.5377C16.3031 16.5223 15.75 17.8576 15.75 19.25C15.75 20.6424 16.3031 21.9777 17.2877 22.9623C18.2723 23.9469 19.6076 24.5 21 24.5C22.3924 24.5 23.7277 23.9469 24.7123 22.9623Z" fill="white" stroke="#4B3300" stroke-width="2" stroke-linecap="round" stroke-linejoin="round"/>
</svg>
