<svg width="204" height="204" viewBox="0 0 204 204" fill="none" xmlns="http://www.w3.org/2000/svg">
<g clip-path="url(#clip0_151_5155)">
<path d="M195.693 71.5839L184.737 82.5402C189.772 87.5749 189.772 95.7664 184.737 100.801C182.088 103.45 178.565 104.703 175.087 104.564C171.856 80.249 153.64 59.888 128.642 50.5963C128.004 54.2138 126.741 57.6128 124.966 60.6808H98.1331V179.473C105.289 179.473 112.215 178.629 118.793 177.055V189.803H144.617V166.048C161.196 155.254 172.612 138.83 175.094 120.052C175.265 120.055 175.436 120.064 175.607 120.064C182.88 120.063 190.156 117.294 195.693 111.757C206.769 100.682 206.769 82.6595 195.693 71.5839Z" fill="#FFD170"/>
<path d="M98.133 60.6808H71.2993C68.6611 56.1217 67.1437 50.8329 67.1437 45.1861C67.1437 42.8779 67.4035 40.6327 67.8822 38.4681C56.0185 29.6966 41.3192 29.6914 41.3192 29.6914V66.6876C35.5381 72.09 30.7704 78.3174 27.2779 85.1443L0 96.8351V127.824L27.2779 139.515C32.6778 150.07 41.1219 159.194 51.649 166.048V189.803H61.9788H77.4734V177.055C84.0509 178.629 90.9776 179.473 98.133 179.473V60.6808ZM54.2314 102C49.9528 102 46.4841 98.5312 46.4841 94.2526C46.4841 89.974 49.9528 86.5053 54.2314 86.5053C58.51 86.5053 61.9788 89.974 61.9788 94.2526C61.9788 98.5312 58.51 102 54.2314 102Z" fill="#FAB577"/>
<path d="M71.2994 60.6808H98.1331V14.1967C83.3258 14.1967 70.9518 24.5844 67.8823 38.4681C67.4035 40.6322 67.1437 42.8779 67.1437 45.1861C67.1437 50.8329 68.6611 56.1217 71.2994 60.6808Z" fill="#D0F9CD"/>
<path d="M98.1331 60.6808H124.967C126.742 57.6128 128.005 54.2138 128.642 50.5963C128.952 48.8392 129.122 47.0331 129.122 45.1861C129.122 28.0707 115.248 14.1967 98.1331 14.1967V60.6808Z" fill="#A4F4DA"/>
<path d="M54.2315 102C58.5102 102 61.9788 98.5313 61.9788 94.2526C61.9788 89.9739 58.5102 86.5052 54.2315 86.5052C49.9527 86.5052 46.4841 89.9739 46.4841 94.2526C46.4841 98.5313 49.9527 102 54.2315 102Z" fill="white"/>
</g>
<defs>
<clipPath id="clip0_151_5155">
<rect width="204" height="204" fill="white"/>
</clipPath>
</defs>
</svg>
