<svg width="33" height="33" viewBox="0 0 33 33" fill="none" xmlns="http://www.w3.org/2000/svg">
<path d="M15.6667 3.25589C16.0623 2.65971 16.9377 2.65971 17.3333 3.25589L21.3225 9.26837C21.4554 9.46864 21.6559 9.61435 21.8875 9.67884L28.8384 11.6149C29.5276 11.8068 29.7982 12.6394 29.3534 13.1998L24.8679 18.8518C24.7185 19.04 24.6419 19.2758 24.6521 19.5159L24.9588 26.7249C24.9892 27.4398 24.281 27.9543 23.6106 27.7045L16.8492 25.1851C16.624 25.1012 16.376 25.1012 16.1508 25.1851L9.38943 27.7045C8.719 27.9543 8.01077 27.4398 8.04118 26.7249L8.34787 19.5159C8.35809 19.2758 8.28148 19.04 8.13208 18.8518L3.64661 13.1998C3.20184 12.6394 3.47236 11.8068 4.1616 11.6149L11.1125 9.67884C11.3441 9.61435 11.5446 9.46864 11.6775 9.26837L15.6667 3.25589Z" fill="#D9D9D9"/>
</svg>
