<svg width="270" height="50" viewBox="0 0 270 50" fill="none" xmlns="http://www.w3.org/2000/svg">
<path d="M23.3015 2.73175C24.0841 1.47312 25.9159 1.47312 26.6985 2.73175L32.9465 12.7808C33.2219 13.2237 33.6593 13.5415 34.1655 13.6665L45.6535 16.5034C47.0924 16.8587 47.6584 18.6009 46.7032 19.7341L39.0767 28.7817C38.7406 29.1804 38.5736 29.6946 38.6111 30.2147L39.463 42.0171C39.5697 43.4953 38.0878 44.572 36.7149 44.0137L25.7534 39.5564C25.2703 39.3599 24.7297 39.3599 24.2466 39.5564L13.2851 44.0137C11.9122 44.572 10.4303 43.4953 10.537 42.0171L11.3889 30.2147C11.4264 29.6946 11.2594 29.1804 10.9233 28.7817L3.29678 19.7341C2.34157 18.6009 2.90764 16.8587 4.34649 16.5034L15.8345 13.6665C16.3407 13.5415 16.7781 13.2237 17.0535 12.7808L23.3015 2.73175Z" fill="#D9D9D9"/>
<path d="M78.3015 2.73175C79.0841 1.47312 80.9159 1.47312 81.6985 2.73175L87.9465 12.7808C88.2219 13.2237 88.6593 13.5415 89.1655 13.6665L100.654 16.5034C102.092 16.8587 102.658 18.6009 101.703 19.7341L94.0767 28.7817C93.7406 29.1804 93.5736 29.6946 93.6111 30.2147L94.463 42.0171C94.5697 43.4953 93.0878 44.572 91.7149 44.0137L80.7534 39.5564C80.2703 39.3599 79.7297 39.3599 79.2466 39.5564L68.2851 44.0137C66.9122 44.572 65.4303 43.4953 65.537 42.0171L66.3889 30.2147C66.4264 29.6946 66.2594 29.1804 65.9233 28.7817L58.2968 19.7341C57.3416 18.6009 57.9076 16.8587 59.3465 16.5034L70.8345 13.6665C71.3407 13.5415 71.7781 13.2237 72.0535 12.7808L78.3015 2.73175Z" fill="#D9D9D9"/>
<path d="M133.302 2.73175C134.084 1.47312 135.916 1.47312 136.698 2.73175L142.947 12.7808C143.222 13.2237 143.659 13.5415 144.166 13.6665L155.654 16.5034C157.092 16.8587 157.658 18.6009 156.703 19.7341L149.077 28.7817C148.741 29.1804 148.574 29.6946 148.611 30.2147L149.463 42.0171C149.57 43.4953 148.088 44.572 146.715 44.0137L135.753 39.5564C135.27 39.3599 134.73 39.3599 134.247 39.5564L123.285 44.0137C121.912 44.572 120.43 43.4953 120.537 42.0171L121.389 30.2147C121.426 29.6946 121.259 29.1804 120.923 28.7817L113.297 19.7341C112.342 18.6009 112.908 16.8587 114.346 16.5034L125.834 13.6665C126.341 13.5415 126.778 13.2237 127.053 12.7808L133.302 2.73175Z" fill="#D9D9D9"/>
<path d="M188.302 2.73175C189.084 1.47312 190.916 1.47312 191.698 2.73175L197.947 12.7808C198.222 13.2237 198.659 13.5415 199.166 13.6665L210.654 16.5034C212.092 16.8587 212.658 18.6009 211.703 19.7341L204.077 28.7817C203.741 29.1804 203.574 29.6946 203.611 30.2147L204.463 42.0171C204.57 43.4953 203.088 44.572 201.715 44.0137L190.753 39.5564C190.27 39.3599 189.73 39.3599 189.247 39.5564L178.285 44.0137C176.912 44.572 175.43 43.4953 175.537 42.0171L176.389 30.2147C176.426 29.6946 176.259 29.1804 175.923 28.7817L168.297 19.7341C167.342 18.6009 167.908 16.8587 169.346 16.5034L180.834 13.6665C181.341 13.5415 181.778 13.2237 182.053 12.7808L188.302 2.73175Z" fill="#D9D9D9"/>
<path d="M243.302 2.73175C244.084 1.47312 245.916 1.47312 246.698 2.73175L252.947 12.7808C253.222 13.2237 253.659 13.5415 254.166 13.6665L265.654 16.5034C267.092 16.8587 267.658 18.6009 266.703 19.7341L259.077 28.7817C258.741 29.1804 258.574 29.6946 258.611 30.2147L259.463 42.0171C259.57 43.4953 258.088 44.572 256.715 44.0137L245.753 39.5564C245.27 39.3599 244.73 39.3599 244.247 39.5564L233.285 44.0137C231.912 44.572 230.43 43.4953 230.537 42.0171L231.389 30.2147C231.426 29.6946 231.259 29.1804 230.923 28.7817L223.297 19.7341C222.342 18.6009 222.908 16.8587 224.346 16.5034L235.834 13.6665C236.341 13.5415 236.778 13.2237 237.053 12.7808L243.302 2.73175Z" fill="#D9D9D9"/>
<path d="M26.6986 2.73175C26.3073 2.10241 25.6536 1.78775 25 1.78778C25 20.5984 25 20.5984 25 39.409C25.256 39.409 25.5119 39.4581 25.7535 39.5564L36.7149 44.0137C38.0878 44.572 39.5698 43.4953 39.4631 42.0171L38.6112 30.2147C38.5737 29.6946 38.7407 29.1804 39.0768 28.7817L46.7033 19.7341C47.6585 18.6009 47.0924 16.8587 45.6536 16.5034L34.1656 13.6665C33.6593 13.5415 33.2219 13.2237 32.9466 12.7808L26.6986 2.73175Z" fill="#FBBC04"/>
<path d="M81.6986 2.73175C81.3073 2.10241 80.6536 1.78775 80 1.78778C80 20.5984 80 20.5984 80 39.409C80.256 39.409 80.5119 39.4581 80.7535 39.5564L91.7149 44.0137C93.0878 44.572 94.5698 43.4953 94.4631 42.0171L93.6112 30.2147C93.5737 29.6946 93.7407 29.1804 94.0768 28.7817L101.703 19.7341C102.659 18.6009 102.092 16.8587 100.654 16.5034L89.1656 13.6665C88.6593 13.5415 88.2219 13.2237 87.9466 12.7808L81.6986 2.73175Z" fill="#FBBC04"/>
<path d="M136.699 2.73175C136.307 2.10241 135.654 1.78775 135 1.78778C135 20.5984 135 20.5984 135 39.409C135.256 39.409 135.512 39.4581 135.753 39.5564L146.715 44.0137C148.088 44.572 149.57 43.4953 149.463 42.0171L148.611 30.2147C148.574 29.6946 148.741 29.1804 149.077 28.7817L156.703 19.7341C157.659 18.6009 157.092 16.8587 155.654 16.5034L144.166 13.6665C143.659 13.5415 143.222 13.2237 142.947 12.7808L136.699 2.73175Z" fill="#FBBC04"/>
<path d="M191.699 2.73175C191.307 2.10241 190.654 1.78775 190 1.78778C190 20.5984 190 20.5984 190 39.409C190.256 39.409 190.512 39.4581 190.753 39.5564L201.715 44.0137C203.088 44.572 204.57 43.4953 204.463 42.0171L203.611 30.2147C203.574 29.6946 203.741 29.1804 204.077 28.7817L211.703 19.7341C212.659 18.6009 212.092 16.8587 210.654 16.5034L199.166 13.6665C198.659 13.5415 198.222 13.2237 197.947 12.7808L191.699 2.73175Z" fill="#FBBC04"/>
<path d="M246.699 2.73175C246.307 2.10241 245.654 1.78775 245 1.78778C245 20.5984 245 20.5984 245 39.409C245.256 39.409 245.512 39.4581 245.753 39.5564L256.715 44.0137C258.088 44.572 259.57 43.4953 259.463 42.0171L258.611 30.2147C258.574 29.6946 258.741 29.1804 259.077 28.7817L266.703 19.7341C267.659 18.6009 267.092 16.8587 265.654 16.5034L254.166 13.6665C253.659 13.5415 253.222 13.2237 252.947 12.7808L246.699 2.73175Z" fill="#FBBC04"/>
<path d="M23.3014 2.73175C23.6927 2.10241 24.3464 1.78775 25 1.78778C25 20.5984 25 20.5984 25 39.409C24.744 39.409 24.4881 39.4581 24.2465 39.5564L13.2851 44.0137C11.9122 44.572 10.4302 43.4953 10.5369 42.0171L11.3888 30.2147C11.4263 29.6946 11.2593 29.1804 10.9232 28.7817L3.29669 19.7341C2.34149 18.6009 2.90756 16.8587 4.34641 16.5034L15.8344 13.6665C16.3407 13.5415 16.7781 13.2237 17.0534 12.7808L23.3014 2.73175Z" fill="#FBBC04"/>
<path d="M78.3014 2.73175C78.6927 2.10241 79.3464 1.78775 80 1.78778C80 20.5984 80 20.5984 80 39.409C79.744 39.409 79.4881 39.4581 79.2465 39.5564L68.2851 44.0137C66.9122 44.572 65.4302 43.4953 65.5369 42.0171L66.3888 30.2147C66.4263 29.6946 66.2593 29.1804 65.9232 28.7817L58.2967 19.7341C57.3415 18.6009 57.9076 16.8587 59.3464 16.5034L70.8344 13.6665C71.3407 13.5415 71.7781 13.2237 72.0534 12.7808L78.3014 2.73175Z" fill="#FBBC04"/>
<path d="M133.301 2.73175C133.693 2.10241 134.346 1.78775 135 1.78778C135 20.5984 135 20.5984 135 39.409C134.744 39.409 134.488 39.4581 134.247 39.5564L123.285 44.0137C121.912 44.572 120.43 43.4953 120.537 42.0171L121.389 30.2147C121.426 29.6946 121.259 29.1804 120.923 28.7817L113.297 19.7341C112.341 18.6009 112.908 16.8587 114.346 16.5034L125.834 13.6665C126.341 13.5415 126.778 13.2237 127.053 12.7808L133.301 2.73175Z" fill="#FBBC04"/>
<path d="M188.301 2.73175C188.693 2.10241 189.346 1.78775 190 1.78778C190 20.5984 190 20.5984 190 39.409C189.744 39.409 189.488 39.4581 189.247 39.5564L178.285 44.0137C176.912 44.572 175.43 43.4953 175.537 42.0171L176.389 30.2147C176.426 29.6946 176.259 29.1804 175.923 28.7817L168.297 19.7341C167.341 18.6009 167.908 16.8587 169.346 16.5034L180.834 13.6665C181.341 13.5415 181.778 13.2237 182.053 12.7808L188.301 2.73175Z" fill="#FBBC04"/>
<path d="M243.301 2.73175C243.693 2.10241 244.346 1.78775 245 1.78778C245 20.5984 245 20.5984 245 39.409C244.744 39.409 244.488 39.4581 244.247 39.5564L233.285 44.0137C231.912 44.572 230.43 43.4953 230.537 42.0171L231.389 30.2147C231.426 29.6946 231.259 29.1804 230.923 28.7817L223.297 19.7341C222.341 18.6009 222.908 16.8587 224.346 16.5034L235.834 13.6665C236.341 13.5415 236.778 13.2237 237.053 12.7808L243.301 2.73175Z" fill="#FBBC04"/>
</svg>
